<svg aria-hidden="true" style="position: absolute; width: 0; height: 0; overflow: hidden;" version="1.1" xmlns="http://www.w3.org/2000/svg" xmlns:xlink="http://www.w3.org/1999/xlink">
<defs>
<symbol id="icon-database" viewBox="0 0 32 32">
<title>database</title>
<path d="M16.014 22.082c-0.037 0-0.074 0-0.111 0-8.782 0-15.885-2.133-15.887-3.771l-0.016-6.433c0-0.010 0.004-0.019 0.004-0.027 1.446 0.686 3.145 1.002 4.161 1.191 3.157 0.587 7.327 0.911 11.738 0.911h0.111c4.439-0.005 8.633-0.337 11.813-0.934 1.017-0.191 2.71-0.509 4.157-1.191 0 0.003 0 0.009 0 0.009l0.017 6.433c0.002 1.645-7.153 3.8-15.987 3.812zM16.014 12.016c-0.037 0-0.074 0-0.111 0-8.782 0-15.885-1.946-15.887-3.584l-0.016-5.434c-0.003-1.644 7.156-2.987 15.99-2.998 0.039 0 0.076 0 0.115 0 8.779 0 15.877 1.32 15.879 2.958l0.017 5.434c0.002 1.644-7.153 3.612-15.987 3.624zM15.902 24.020h0.111c4.439-0.006 8.634-0.524 11.813-1.121 1.017-0.191 2.71-0.509 4.158-1.192l0.016 7.296c0.002 1.645-7.153 2.987-15.987 2.998-0.038 0-0.074 0-0.113 0-8.78 0-15.883-1.32-15.885-2.957l-0.015-7.315c1.446 0.687 3.146 1.003 4.164 1.192 3.157 0.588 7.326 1.099 11.738 1.099z"></path>
</symbol>
<symbol id="icon-stats-dots" viewBox="0 0 32 32">
<title>stats-dots</title>
<path d="M4 28h28v4h-32v-32h4zM9 26c-1.657 0-3-1.343-3-3s1.343-3 3-3c0.088 0 0.176 0.005 0.262 0.012l3.225-5.375c-0.307-0.471-0.487-1.033-0.487-1.638 0-1.657 1.343-3 3-3s3 1.343 3 3c0 0.604-0.179 1.167-0.487 1.638l3.225 5.375c0.086-0.007 0.174-0.012 0.262-0.012 0.067 0 0.133 0.003 0.198 0.007l5.324-9.316c-0.329-0.482-0.522-1.064-0.522-1.691 0-1.657 1.343-3 3-3s3 1.343 3 3c0 1.657-1.343 3-3 3-0.067 0-0.133-0.003-0.198-0.007l-5.324 9.316c0.329 0.481 0.522 1.064 0.522 1.691 0 1.657-1.343 3-3 3s-3-1.343-3-3c0-0.604 0.179-1.167 0.487-1.638l-3.225-5.375c-0.086 0.007-0.174 0.012-0.262 0.012s-0.176-0.005-0.262-0.012l-3.225 5.375c0.307 0.471 0.487 1.033 0.487 1.637 0 1.657-1.343 3-3 3z"></path>
</symbol>
<symbol id="icon-stats-bars" viewBox="0 0 32 32">
<title>stats-bars</title>
<path d="M0 26h32v4h-32zM4 18h4v6h-4zM10 10h4v14h-4zM16 16h4v8h-4zM22 4h4v20h-4z"></path>
</symbol>
<symbol id="icon-dollar" viewBox="0 0 16 28">
<title>dollar</title>
<path d="M15.281 18.516c0 3.187-2.281 5.703-5.594 6.25v2.734c0 0.281-0.219 0.5-0.5 0.5h-2.109c-0.266 0-0.5-0.219-0.5-0.5v-2.734c-3.656-0.516-5.656-2.703-5.734-2.797-0.156-0.187-0.172-0.453-0.031-0.641l1.609-2.109c0.078-0.109 0.219-0.172 0.359-0.187s0.281 0.031 0.375 0.141c0.031 0.016 2.219 2.109 4.984 2.109 1.531 0 3.187-0.812 3.187-2.578 0-1.5-1.844-2.234-3.953-3.078-2.812-1.109-6.312-2.516-6.312-6.438 0-2.875 2.25-5.25 5.516-5.875v-2.812c0-0.281 0.234-0.5 0.5-0.5h2.109c0.281 0 0.5 0.219 0.5 0.5v2.75c3.172 0.359 4.859 2.078 4.922 2.141 0.156 0.172 0.187 0.406 0.078 0.594l-1.266 2.281c-0.078 0.141-0.203 0.234-0.359 0.25-0.156 0.031-0.297-0.016-0.422-0.109-0.016-0.016-1.906-1.687-4.25-1.687-1.984 0-3.359 0.984-3.359 2.406 0 1.656 1.906 2.391 4.125 3.25 2.875 1.109 6.125 2.375 6.125 6.141z"></path>
</symbol>
<symbol id="icon-type" viewBox="0 0 24 24">
<title>type</title>
<path d="M20 3v-2h-6v2h2v18h-2v2h6v-2h-2v-18zM14 5.342c0-0.104-0.195-0.229-0.32-0.318-0.551-0.411-1.16-0.679-1.836-0.803-0.676-0.125-1.465-0.187-2.373-0.187-0.658 0-1.334 0.104-2.025 0.316-0.692 0.211-1.28 0.467-1.766 0.771-0.563 0.356-1.019 0.762-1.37 1.215-0.351 0.454-0.527 0.93-0.527 1.427 0 0.476 0.127 0.905 0.381 1.289s0.651 0.575 1.191 0.575c0.605 0 1.078-0.156 1.419-0.471 0.341-0.312 0.511-0.658 0.511-1.037 0-0.356-0.052-0.745-0.154-1.167-0.104-0.421-0.154-0.74-0.154-0.956 0.173-0.184 0.473-0.359 0.9-0.527 0.426-0.168 0.889-0.251 1.386-0.251 0.724 0 1.283 0.148 1.678 0.445 0.395 0.298 0.7 0.646 0.916 1.046 0.194 0.357 0.143 1.166 0.143 1.166v2.385c0 0.281-1.357 0.67-2.844 1.167s-2.391 0.837-2.878 1.021c-0.388 0.152-0.762 0.355-1.206 0.608-0.443 0.255-0.78 0.543-1.051 0.868-0.346 0.389-0.595 0.826-0.768 1.312s-0.253 1.037-0.253 1.654c0 1.189 0.389 2.151 1.162 2.886 0.772 0.734 1.76 1.103 2.959 1.103 1.135 0 2.105-0.445 2.91-0.855 0.807-0.413 1.561-1.024 2.263-2.024h0.098c0.141 1 0.454 1.571 0.956 1.966l0.652 0.034v-14.658zM12.262 17.227c-0.4 0.509-0.892 0.949-1.475 1.324-0.584 0.373-1.26 0.561-2.027 0.561-0.725 0-1.321-0.211-1.791-0.635-0.471-0.422-0.705-1.082-0.705-1.98 0-0.693 0.156-1.293 0.471-1.796 0.312-0.505 0.74-0.94 1.279-1.308 0.596-0.391 1.238-0.715 1.93-0.976 0.691-0.26 1.398-0.498 2.318-0.767v5.577z"></path>
</symbol>
<symbol id="icon-moneybag" viewBox="0 0 32 32">
<title>moneybag</title>
<path d="M14.017 9.302h3.934v-1.476h-3.934v1.476zM17.922 9.793h-3.905c0 0-6.425 6.333-6.425 12.542 0 6.579 6.732 7.102 6.732 7.102s2.008 0.333 3.257 0c0 0 6.826-0.8 6.826-7.070 0.001-6.272-6.485-12.574-6.485-12.574zM18.211 23.123c-0.158 0.32-0.371 0.588-0.643 0.802-0.271 0.215-0.588 0.376-0.949 0.484-0.046 0.014-0.096 0.019-0.143 0.031v1.092h-0.983v-0.964c-0.012 0.001-0.024 0.003-0.036 0.003-0.279 0-0.538-0.022-0.778-0.067s-0.45-0.101-0.634-0.164c-0.184-0.064-0.337-0.131-0.459-0.201s-0.212-0.132-0.266-0.186c-0.055-0.054-0.093-0.132-0.116-0.234-0.022-0.103-0.034-0.249-0.034-0.441 0-0.129 0.004-0.237 0.013-0.325s0.021-0.158 0.041-0.213c0.019-0.055 0.043-0.093 0.074-0.116 0.031-0.022 0.068-0.034 0.109-0.034 0.059 0 0.141 0.034 0.247 0.103s0.242 0.145 0.409 0.228c0.167 0.084 0.365 0.159 0.597 0.229 0.231 0.068 0.499 0.103 0.803 0.103 0.2 0 0.379-0.024 0.537-0.072s0.293-0.115 0.403-0.203c0.111-0.088 0.195-0.196 0.253-0.325 0.059-0.13 0.088-0.273 0.088-0.433 0-0.183-0.051-0.34-0.15-0.472-0.1-0.131-0.231-0.247-0.391-0.35-0.16-0.102-0.342-0.197-0.546-0.287s-0.415-0.185-0.631-0.284c-0.217-0.1-0.427-0.213-0.631-0.341-0.204-0.127-0.387-0.278-0.547-0.455s-0.29-0.387-0.391-0.628c-0.1-0.241-0.149-0.531-0.149-0.868 0-0.388 0.072-0.728 0.215-1.021s0.338-0.537 0.581-0.73c0.244-0.193 0.531-0.338 0.862-0.434 0.17-0.049 0.346-0.085 0.526-0.108v-1.035h0.983v1.034c0.040 0.005 0.079 0.003 0.118 0.009 0.191 0.029 0.371 0.068 0.537 0.118s0.314 0.105 0.443 0.167 0.215 0.113 0.256 0.155c0.043 0.041 0.070 0.076 0.086 0.105 0.014 0.029 0.025 0.068 0.037 0.116 0.010 0.048 0.018 0.108 0.021 0.182 0.004 0.072 0.006 0.163 0.006 0.271 0 0.121-0.004 0.224-0.010 0.308-0.006 0.083-0.016 0.152-0.031 0.206-0.014 0.055-0.035 0.094-0.062 0.119s-0.062 0.037-0.109 0.037c-0.045 0-0.119-0.028-0.219-0.086-0.1-0.059-0.223-0.121-0.367-0.189-0.146-0.068-0.314-0.13-0.506-0.187-0.193-0.056-0.403-0.083-0.631-0.083-0.18 0-0.336 0.021-0.469 0.065-0.134 0.043-0.245 0.104-0.335 0.18-0.089 0.077-0.156 0.17-0.199 0.277-0.044 0.107-0.065 0.222-0.065 0.342 0 0.18 0.049 0.335 0.146 0.466s0.229 0.248 0.394 0.35c0.164 0.103 0.351 0.198 0.56 0.287 0.208 0.090 0.42 0.185 0.637 0.284 0.217 0.101 0.428 0.214 0.637 0.341s0.395 0.279 0.557 0.456 0.293 0.385 0.393 0.624c0.1 0.24 0.15 0.521 0.15 0.847-0.001 0.422-0.081 0.794-0.239 1.115zM17.891 7.334l1.998-4.919c0 0-1.26 1.046-1.998 1.046s-1.907-1.015-1.907-1.015-1.26 1.015-1.998 1.015c-0.737 0-1.937-0.984-1.937-0.984l2.029 4.857h3.813z"></path>
</symbol>
<symbol id="icon-chart" viewBox="0 0 32 32">
<title>chart</title>
<path d="M3.987 4h-0.987v24h26v-0.963l-24.996-0.050-0.017-22.987zM11 5c0-0.553-0.448-1-1-1h-3c-0.553 0-1 0.447-1 1v20h5v-20zM17 11c0-0.553-0.448-1-1-1h-3c-0.553 0-1 0.447-1 1v14h5v-14zM23 17c0-0.553-0.448-1-1-1h-3c-0.553 0-1 0.447-1 1v8h5v-8zM28 22h-3c-0.553 0-1 0.447-1 1v2h5v-2c0-0.553-0.448-1-1-1z"></path>
</symbol>
<symbol id="icon-document-graph" viewBox="0 0 32 32">
<title>document-graph</title>
<path d="M14.959 21.801l-2.959 3.174v0.025h10v1h-11v-8h1v5.509l2.91-3.121 2.194 2.046 3.202-3.434h-1.306v-1h3v3h-1v-1.277l-3.847 4.125-2.194-2.046zM19.5 3h0.5l6 7v18.009c0 1.093-0.894 1.991-1.997 1.991h-15.005c-1.107 0-1.997-0.899-1.997-2.007v-22.985c0-1.109 0.897-2.007 2.003-2.007h10.497zM19 4h-10.004c-0.55 0-0.996 0.455-0.996 0.995v23.009c0 0.55 0.455 0.995 1 0.995h15c0.552 0 1-0.445 1-0.993v-17.007h-4.002c-1.103 0-1.998-0.887-1.998-2.006v-4.994zM20 4.5v4.491c0 0.557 0.451 1.009 0.997 1.009h3.703l-4.7-5.5z"></path>
</symbol>
</defs>
</svg>
